<svg width="652" height="251" viewBox="0 0 652 251" fill="none" xmlns="http://www.w3.org/2000/svg">
<path fill-rule="evenodd" clip-rule="evenodd" d="M88.9161 0.708008L459.257 170.167L512.275 233.895H58.469C50.2531 200.582 47.3534 161.718 49.7698 117.301C52.1863 72.8848 65.235 34.0204 88.9161 0.708008Z" fill="#E5EDED"/>
<path fill-rule="evenodd" clip-rule="evenodd" d="M527.037 118.75C595.701 118.75 651.363 174.355 651.363 242.947C651.363 245.501 651.286 248.037 651.134 250.552H402.941C402.789 248.037 402.712 245.501 402.712 242.947C402.712 174.355 458.374 118.75 527.037 118.75Z" fill="#507079"/>
<path d="M496.582 184.156C497.715 184.156 498.562 183.876 499.122 183.316C499.695 182.743 499.982 181.903 499.982 180.796V179.396L498.302 178.976V178.076H503.662V178.976L501.982 179.396V185.256H500.942L500.442 183.676C499.869 184.316 499.269 184.776 498.642 185.056C498.029 185.323 497.302 185.456 496.462 185.456C494.635 185.456 493.175 184.896 492.082 183.776C491.469 183.149 490.989 182.356 490.642 181.396C490.309 180.436 490.142 179.376 490.142 178.216C490.142 177.029 490.315 175.929 490.662 174.916C491.022 173.889 491.522 173.043 492.162 172.376C492.709 171.803 493.342 171.376 494.062 171.096C494.795 170.803 495.622 170.656 496.542 170.656C497.342 170.656 498.029 170.783 498.602 171.036C499.175 171.276 499.709 171.676 500.202 172.236L500.642 170.856H501.742V175.276H500.522C500.335 174.103 499.895 173.223 499.202 172.636C498.522 172.036 497.609 171.736 496.462 171.736C495.795 171.736 495.229 171.849 494.762 172.076C494.309 172.289 493.915 172.629 493.582 173.096C493.209 173.656 492.909 174.363 492.682 175.216C492.469 176.069 492.362 176.976 492.362 177.936C492.362 178.923 492.475 179.836 492.702 180.676C492.942 181.516 493.275 182.229 493.702 182.816C494.049 183.283 494.449 183.623 494.902 183.836C495.355 184.049 495.915 184.156 496.582 184.156ZM510.881 175.616C510.827 175.576 510.761 175.549 510.681 175.536C510.614 175.509 510.547 175.496 510.481 175.496C510.321 175.496 510.147 175.569 509.961 175.716C509.774 175.863 509.594 176.063 509.421 176.316C509.247 176.556 509.087 176.836 508.941 177.156C508.754 177.609 508.607 178.109 508.501 178.656C508.394 179.189 508.341 179.743 508.341 180.316V184.056L510.501 184.436V185.256H504.861V184.436L506.401 184.056V175.656L504.861 175.276V174.456H507.741L508.181 177.096H508.261C508.567 176.189 508.981 175.489 509.501 174.996C510.021 174.503 510.594 174.256 511.221 174.256C511.741 174.256 512.174 174.423 512.521 174.756C512.867 175.076 513.041 175.509 513.041 176.056C513.041 176.456 512.934 176.776 512.721 177.016C512.521 177.243 512.247 177.356 511.901 177.356C511.554 177.356 511.281 177.249 511.081 177.036C510.881 176.809 510.781 176.516 510.781 176.156C510.781 176.076 510.787 176.003 510.801 175.936C510.814 175.856 510.841 175.749 510.881 175.616ZM523.923 179.756C523.923 180.623 523.79 181.449 523.523 182.236C523.27 183.009 522.91 183.649 522.443 184.156C522.043 184.596 521.55 184.923 520.963 185.136C520.376 185.349 519.71 185.456 518.963 185.456C518.23 185.456 517.576 185.356 517.003 185.156C516.43 184.943 515.943 184.623 515.543 184.196C515.09 183.703 514.736 183.096 514.483 182.376C514.243 181.643 514.123 180.849 514.123 179.996C514.123 179.129 514.25 178.303 514.503 177.516C514.756 176.716 515.123 176.063 515.603 175.556C516.03 175.103 516.523 174.776 517.083 174.576C517.656 174.363 518.31 174.256 519.043 174.256C519.776 174.256 520.436 174.363 521.023 174.576C521.61 174.776 522.103 175.089 522.503 175.516C522.97 176.009 523.323 176.629 523.563 177.376C523.803 178.109 523.923 178.903 523.923 179.756ZM516.263 179.776C516.263 180.589 516.323 181.296 516.443 181.896C516.576 182.483 516.756 182.969 516.983 183.356C517.21 183.689 517.476 183.949 517.783 184.136C518.103 184.323 518.516 184.416 519.023 184.416C519.943 184.416 520.63 184.103 521.083 183.476C521.323 183.129 521.496 182.649 521.603 182.036C521.723 181.423 521.783 180.716 521.783 179.916C521.783 179.116 521.716 178.416 521.583 177.816C521.463 177.216 521.29 176.729 521.063 176.356C520.85 176.009 520.576 175.749 520.243 175.576C519.923 175.389 519.51 175.296 519.003 175.296C518.07 175.296 517.396 175.603 516.983 176.216C516.503 176.963 516.263 178.149 516.263 179.776ZM527.95 175.656L530.01 182.856L530.25 184.036H530.35L530.59 182.856L532.93 174.256H534.37L536.79 182.856L537.03 184.036H537.11L537.35 182.856L539.35 175.656L538.05 175.276V174.456H541.85V175.276L540.77 175.656L537.79 185.456H535.73L533.35 177.656L531.03 185.456H528.97L525.91 175.656L524.85 175.276V174.456H529.33V175.276L527.95 175.656ZM542.309 175.456V174.736L544.249 174.456L544.509 171.936L546.189 171.696V174.456H548.749V175.456H546.189V182.596C546.189 183.049 546.196 183.363 546.209 183.536C546.222 183.696 546.249 183.829 546.289 183.936C546.329 184.029 546.402 184.096 546.509 184.136C546.616 184.163 546.789 184.176 547.029 184.176H548.429V184.756C547.789 184.996 547.222 185.169 546.729 185.276C546.249 185.396 545.862 185.456 545.569 185.456C544.969 185.456 544.582 185.209 544.409 184.716C544.356 184.556 544.316 184.349 544.289 184.096C544.262 183.843 544.249 183.469 544.249 182.976V175.456H542.309ZM557.905 184.056V179.596C557.905 178.729 557.879 178.083 557.825 177.656C557.785 177.229 557.705 176.896 557.585 176.656C557.265 176.003 556.679 175.676 555.825 175.676C555.452 175.676 555.092 175.743 554.745 175.876C554.399 176.009 554.092 176.189 553.825 176.416C553.532 176.669 553.312 176.976 553.165 177.336C553.032 177.683 552.952 178.116 552.925 178.636V184.056L554.265 184.436V185.256H549.445V184.436L550.985 184.056V170.856L549.445 170.476V169.656H552.925V176.336C553.325 175.696 553.852 175.189 554.505 174.816C555.172 174.443 555.885 174.256 556.645 174.256C557.179 174.256 557.659 174.349 558.085 174.536C558.512 174.723 558.852 174.989 559.105 175.336C559.372 175.709 559.559 176.236 559.665 176.916C559.785 177.583 559.845 178.489 559.845 179.636V184.056L561.385 184.436V185.256H556.565V184.436L557.905 184.056Z" fill="white"/>
<path d="M486.738 198.456V197.736L488.678 197.456L488.938 194.936L490.618 194.696V197.456H493.178V198.456H490.618V205.596C490.618 206.049 490.625 206.363 490.638 206.536C490.651 206.696 490.678 206.829 490.718 206.936C490.758 207.029 490.831 207.096 490.938 207.136C491.045 207.163 491.218 207.176 491.458 207.176H492.858V207.756C492.218 207.996 491.651 208.169 491.158 208.276C490.678 208.396 490.291 208.456 489.998 208.456C489.398 208.456 489.011 208.209 488.838 207.716C488.785 207.556 488.745 207.349 488.718 207.096C488.691 206.843 488.678 206.469 488.678 205.976V198.456H486.738ZM502.334 207.056V202.596C502.334 201.729 502.308 201.083 502.254 200.656C502.214 200.229 502.134 199.896 502.014 199.656C501.694 199.003 501.108 198.676 500.254 198.676C499.881 198.676 499.521 198.743 499.174 198.876C498.828 199.009 498.521 199.189 498.254 199.416C497.961 199.669 497.741 199.976 497.594 200.336C497.461 200.683 497.381 201.116 497.354 201.636V207.056L498.694 207.436V208.256H493.874V207.436L495.414 207.056V193.856L493.874 193.476V192.656H497.354V199.336C497.754 198.696 498.281 198.189 498.934 197.816C499.601 197.443 500.314 197.256 501.074 197.256C501.608 197.256 502.088 197.349 502.514 197.536C502.941 197.723 503.281 197.989 503.534 198.336C503.801 198.709 503.988 199.236 504.094 199.916C504.214 200.583 504.274 201.489 504.274 202.636V207.056L505.814 207.436V208.256H500.994V207.436L502.334 207.056ZM512.985 198.616C512.932 198.576 512.865 198.549 512.785 198.536C512.719 198.509 512.652 198.496 512.585 198.496C512.425 198.496 512.252 198.569 512.065 198.716C511.879 198.863 511.699 199.063 511.525 199.316C511.352 199.556 511.192 199.836 511.045 200.156C510.859 200.609 510.712 201.109 510.605 201.656C510.499 202.189 510.445 202.743 510.445 203.316V207.056L512.605 207.436V208.256H506.965V207.436L508.505 207.056V198.656L506.965 198.276V197.456H509.845L510.285 200.096H510.365C510.672 199.189 511.085 198.489 511.605 197.996C512.125 197.503 512.699 197.256 513.325 197.256C513.845 197.256 514.279 197.423 514.625 197.756C514.972 198.076 515.145 198.509 515.145 199.056C515.145 199.456 515.039 199.776 514.825 200.016C514.625 200.243 514.352 200.356 514.005 200.356C513.659 200.356 513.385 200.249 513.185 200.036C512.985 199.809 512.885 199.516 512.885 199.156C512.885 199.076 512.892 199.003 512.905 198.936C512.919 198.856 512.945 198.749 512.985 198.616ZM526.028 202.756C526.028 203.623 525.895 204.449 525.628 205.236C525.375 206.009 525.015 206.649 524.548 207.156C524.148 207.596 523.655 207.923 523.068 208.136C522.481 208.349 521.815 208.456 521.068 208.456C520.335 208.456 519.681 208.356 519.108 208.156C518.535 207.943 518.048 207.623 517.648 207.196C517.195 206.703 516.841 206.096 516.588 205.376C516.348 204.643 516.228 203.849 516.228 202.996C516.228 202.129 516.355 201.303 516.608 200.516C516.861 199.716 517.228 199.063 517.708 198.556C518.135 198.103 518.628 197.776 519.188 197.576C519.761 197.363 520.415 197.256 521.148 197.256C521.881 197.256 522.541 197.363 523.128 197.576C523.715 197.776 524.208 198.089 524.608 198.516C525.075 199.009 525.428 199.629 525.668 200.376C525.908 201.109 526.028 201.903 526.028 202.756ZM518.368 202.776C518.368 203.589 518.428 204.296 518.548 204.896C518.681 205.483 518.861 205.969 519.088 206.356C519.315 206.689 519.581 206.949 519.888 207.136C520.208 207.323 520.621 207.416 521.128 207.416C522.048 207.416 522.735 207.103 523.188 206.476C523.428 206.129 523.601 205.649 523.708 205.036C523.828 204.423 523.888 203.716 523.888 202.916C523.888 202.116 523.821 201.416 523.688 200.816C523.568 200.216 523.395 199.729 523.168 199.356C522.955 199.009 522.681 198.749 522.348 198.576C522.028 198.389 521.615 198.296 521.108 198.296C520.175 198.296 519.501 198.603 519.088 199.216C518.608 199.963 518.368 201.149 518.368 202.776ZM530.809 197.456V203.116C530.809 203.969 530.829 204.616 530.869 205.056C530.922 205.483 531.009 205.816 531.129 206.056C531.275 206.376 531.495 206.623 531.789 206.796C532.082 206.956 532.422 207.036 532.809 207.036C533.169 207.036 533.515 206.969 533.849 206.836C534.182 206.703 534.475 206.523 534.729 206.296C535.275 205.803 535.575 205.036 535.629 203.996V198.656L533.889 198.276V197.456H537.569V207.056L539.109 207.436V208.256L536.009 208.456L535.789 206.256H535.709C535.322 206.936 534.795 207.476 534.129 207.876C533.462 208.263 532.749 208.456 531.989 208.456C531.482 208.456 531.015 208.363 530.589 208.176C530.175 207.976 529.849 207.709 529.609 207.376C529.355 207.003 529.169 206.476 529.049 205.796C528.929 205.116 528.869 204.209 528.869 203.076V198.656L527.529 198.276V197.456H530.809ZM549.745 208.456C549.745 209.469 549.312 210.303 548.445 210.956C547.592 211.609 546.398 211.936 544.865 211.936C543.852 211.936 542.998 211.836 542.305 211.636C541.612 211.436 541.085 211.149 540.725 210.776C540.378 210.403 540.205 209.956 540.205 209.436C540.205 208.809 540.392 208.329 540.765 207.996C541.138 207.649 541.652 207.429 542.305 207.336V207.256C541.425 207.003 540.985 206.483 540.985 205.696C540.985 205.416 541.052 205.156 541.185 204.916C541.318 204.663 541.518 204.429 541.785 204.216C542.065 204.003 542.418 203.823 542.845 203.676C542.192 203.436 541.685 203.063 541.325 202.556C540.965 202.049 540.785 201.429 540.785 200.696C540.785 199.629 541.152 198.789 541.885 198.176C542.632 197.563 543.625 197.256 544.865 197.256C545.492 197.256 546.052 197.336 546.545 197.496C547.038 197.643 547.458 197.869 547.805 198.176L548.485 197.936L550.325 197.056H550.665V198.816H550.325L548.925 198.656H548.245C548.632 199.189 548.825 199.829 548.825 200.576C548.825 201.629 548.458 202.463 547.725 203.076C547.005 203.676 546.005 203.976 544.725 203.976C544.592 203.976 544.458 203.976 544.325 203.976C544.192 203.963 544.058 203.949 543.925 203.936C543.392 204.016 542.992 204.156 542.725 204.356C542.472 204.556 542.345 204.809 542.345 205.116C542.345 205.423 542.465 205.636 542.705 205.756C542.945 205.863 543.412 205.916 544.105 205.916H546.425C547.518 205.916 548.345 206.123 548.905 206.536C549.465 206.936 549.745 207.576 549.745 208.456ZM545.545 207.456H544.245C543.352 207.456 542.705 207.609 542.305 207.916C541.905 208.223 541.705 208.623 541.705 209.116C541.705 210.329 542.745 210.936 544.825 210.936C545.958 210.936 546.818 210.763 547.405 210.416C548.005 210.069 548.305 209.563 548.305 208.896C548.305 208.363 548.098 207.989 547.685 207.776C547.285 207.563 546.572 207.456 545.545 207.456ZM542.545 200.616C542.545 201.416 542.725 202.023 543.085 202.436C543.458 202.849 544.032 203.056 544.805 203.056C545.592 203.056 546.165 202.849 546.525 202.436C546.885 202.023 547.065 201.416 547.065 200.616C547.065 199.816 546.885 199.209 546.525 198.796C546.165 198.383 545.592 198.176 544.805 198.176C544.032 198.176 543.458 198.383 543.085 198.796C542.725 199.209 542.545 199.816 542.545 200.616ZM559.756 207.056V202.596C559.756 201.729 559.73 201.083 559.676 200.656C559.636 200.229 559.556 199.896 559.436 199.656C559.116 199.003 558.53 198.676 557.676 198.676C557.303 198.676 556.943 198.743 556.596 198.876C556.25 199.009 555.943 199.189 555.676 199.416C555.383 199.669 555.163 199.976 555.016 200.336C554.883 200.683 554.803 201.116 554.776 201.636V207.056L556.116 207.436V208.256H551.296V207.436L552.836 207.056V193.856L551.296 193.476V192.656H554.776V199.336C555.176 198.696 555.703 198.189 556.356 197.816C557.023 197.443 557.736 197.256 558.496 197.256C559.03 197.256 559.51 197.349 559.936 197.536C560.363 197.723 560.703 197.989 560.956 198.336C561.223 198.709 561.41 199.236 561.516 199.916C561.636 200.583 561.696 201.489 561.696 202.636V207.056L563.236 207.436V208.256H558.416V207.436L559.756 207.056Z" fill="white"/>
<path d="M474.444 221.656L472.904 221.276V220.456H476.384V230.056L477.924 230.436V231.256H472.904V230.436L474.444 230.056V221.656ZM474.164 217.236C474.164 216.849 474.277 216.543 474.504 216.316C474.731 216.089 475.031 215.976 475.404 215.976C475.791 215.976 476.097 216.089 476.324 216.316C476.551 216.543 476.664 216.849 476.664 217.236C476.664 217.609 476.551 217.909 476.324 218.136C476.097 218.363 475.791 218.476 475.404 218.476C475.017 218.476 474.711 218.369 474.484 218.156C474.271 217.929 474.164 217.623 474.164 217.236ZM480.674 230.056V221.656L479.134 221.276V220.456H482.014L482.454 222.456H482.534C482.934 221.776 483.474 221.243 484.154 220.856C484.834 220.456 485.561 220.256 486.334 220.256C487.441 220.256 488.261 220.616 488.794 221.336C489.061 221.709 489.248 222.236 489.354 222.916C489.474 223.583 489.534 224.489 489.534 225.636V230.056L491.074 230.436V231.256H486.254V230.436L487.594 230.056V225.596C487.594 224.729 487.568 224.083 487.514 223.656C487.474 223.229 487.394 222.896 487.274 222.656C487.114 222.336 486.881 222.096 486.574 221.936C486.281 221.763 485.928 221.676 485.514 221.676C484.741 221.676 484.074 221.923 483.514 222.416C482.968 222.909 482.668 223.676 482.614 224.716V230.056L483.954 230.436V231.256H479.134V230.436L480.674 230.056ZM493.78 230.056V221.656L492.24 221.276V220.456H495.12L495.56 222.456H495.64C496.04 221.776 496.58 221.243 497.26 220.856C497.94 220.456 498.667 220.256 499.44 220.256C500.547 220.256 501.367 220.616 501.9 221.336C502.167 221.709 502.353 222.236 502.46 222.916C502.58 223.583 502.64 224.489 502.64 225.636V230.056L504.18 230.436V231.256H499.36V230.436L500.7 230.056V225.596C500.7 224.729 500.673 224.083 500.62 223.656C500.58 223.229 500.5 222.896 500.38 222.656C500.22 222.336 499.987 222.096 499.68 221.936C499.387 221.763 499.033 221.676 498.62 221.676C497.847 221.676 497.18 221.923 496.62 222.416C496.073 222.909 495.773 223.676 495.72 224.716V230.056L497.06 230.436V231.256H492.24V230.436L493.78 230.056ZM515.345 225.756C515.345 226.623 515.212 227.449 514.945 228.236C514.692 229.009 514.332 229.649 513.865 230.156C513.465 230.596 512.972 230.923 512.385 231.136C511.799 231.349 511.132 231.456 510.385 231.456C509.652 231.456 508.999 231.356 508.425 231.156C507.852 230.943 507.365 230.623 506.965 230.196C506.512 229.703 506.159 229.096 505.905 228.376C505.665 227.643 505.545 226.849 505.545 225.996C505.545 225.129 505.672 224.303 505.925 223.516C506.179 222.716 506.545 222.063 507.025 221.556C507.452 221.103 507.945 220.776 508.505 220.576C509.079 220.363 509.732 220.256 510.465 220.256C511.199 220.256 511.859 220.363 512.445 220.576C513.032 220.776 513.525 221.089 513.925 221.516C514.392 222.009 514.745 222.629 514.985 223.376C515.225 224.109 515.345 224.903 515.345 225.756ZM507.685 225.776C507.685 226.589 507.745 227.296 507.865 227.896C507.999 228.483 508.179 228.969 508.405 229.356C508.632 229.689 508.899 229.949 509.205 230.136C509.525 230.323 509.939 230.416 510.445 230.416C511.365 230.416 512.052 230.103 512.505 229.476C512.745 229.129 512.919 228.649 513.025 228.036C513.145 227.423 513.205 226.716 513.205 225.916C513.205 225.116 513.139 224.416 513.005 223.816C512.885 223.216 512.712 222.729 512.485 222.356C512.272 222.009 511.999 221.749 511.665 221.576C511.345 221.389 510.932 221.296 510.425 221.296C509.492 221.296 508.819 221.603 508.405 222.216C507.925 222.963 507.685 224.149 507.685 225.776ZM522.913 231.456H520.853L517.293 221.656L516.173 221.276V220.456H520.653V221.276L519.333 221.656L522.153 230.036H522.233L525.053 221.656L523.813 221.276V220.456H527.613V221.276L526.453 221.656L522.913 231.456ZM528.354 228.916C528.354 227.876 528.841 227.056 529.814 226.456C530.787 225.856 532.401 225.389 534.654 225.056C534.601 224.269 534.527 223.656 534.434 223.216C534.341 222.776 534.221 222.423 534.074 222.156C533.887 221.809 533.627 221.556 533.294 221.396C532.961 221.223 532.601 221.136 532.214 221.136C531.841 221.136 531.501 221.203 531.194 221.336C530.901 221.469 530.701 221.649 530.594 221.876C530.781 222.009 530.914 222.183 530.994 222.396C531.087 222.609 531.134 222.809 531.134 222.996C531.134 223.329 531.021 223.596 530.794 223.796C530.581 223.983 530.314 224.076 529.994 224.076C529.674 224.076 529.407 223.969 529.194 223.756C528.994 223.543 528.894 223.243 528.894 222.856C528.894 222.296 529.087 221.823 529.474 221.436C529.861 221.049 530.347 220.756 530.934 220.556C531.534 220.356 532.134 220.256 532.734 220.256C533.281 220.256 533.781 220.343 534.234 220.516C534.701 220.676 535.094 220.916 535.414 221.236C536.241 222.063 536.654 223.529 536.654 225.636V228.536C536.654 229.189 536.694 229.643 536.774 229.896C536.867 230.149 537.061 230.276 537.354 230.276H538.254V230.876C537.294 231.263 536.547 231.456 536.014 231.456C535.601 231.456 535.321 231.309 535.174 231.016C535.041 230.709 534.974 230.129 534.974 229.276H534.894C534.481 229.956 533.934 230.489 533.254 230.876C532.574 231.263 531.841 231.456 531.054 231.456C530.214 231.456 529.554 231.229 529.074 230.776C528.594 230.323 528.354 229.703 528.354 228.916ZM531.894 230.296C532.267 230.296 532.654 230.203 533.054 230.016C533.467 229.816 533.814 229.543 534.094 229.196C534.307 228.929 534.461 228.616 534.554 228.256C534.661 227.883 534.714 227.449 534.714 226.956C534.714 226.729 534.707 226.509 534.694 226.296C534.681 226.069 534.661 225.856 534.634 225.656C533.554 225.869 532.707 226.103 532.094 226.356C531.481 226.596 531.047 226.889 530.794 227.236C530.541 227.569 530.414 227.989 530.414 228.496C530.414 229.069 530.541 229.516 530.794 229.836C531.061 230.143 531.427 230.296 531.894 230.296ZM538.516 221.456V220.736L540.456 220.456L540.716 217.936L542.396 217.696V220.456H544.956V221.456H542.396V228.596C542.396 229.049 542.403 229.363 542.416 229.536C542.43 229.696 542.456 229.829 542.496 229.936C542.536 230.029 542.61 230.096 542.716 230.136C542.823 230.163 542.996 230.176 543.236 230.176H544.636V230.756C543.996 230.996 543.43 231.169 542.936 231.276C542.456 231.396 542.07 231.456 541.776 231.456C541.176 231.456 540.79 231.209 540.616 230.716C540.563 230.556 540.523 230.349 540.496 230.096C540.47 229.843 540.456 229.469 540.456 228.976V221.456H538.516ZM547.413 221.656L545.873 221.276V220.456H549.353V230.056L550.893 230.436V231.256H545.873V230.436L547.413 230.056V221.656ZM547.133 217.236C547.133 216.849 547.246 216.543 547.473 216.316C547.699 216.089 547.999 215.976 548.373 215.976C548.759 215.976 549.066 216.089 549.293 216.316C549.519 216.543 549.633 216.849 549.633 217.236C549.633 217.609 549.519 217.909 549.293 218.136C549.066 218.363 548.759 218.476 548.373 218.476C547.986 218.476 547.679 218.369 547.453 218.156C547.239 217.929 547.133 217.623 547.133 217.236ZM562.103 225.756C562.103 226.623 561.97 227.449 561.703 228.236C561.45 229.009 561.09 229.649 560.623 230.156C560.223 230.596 559.73 230.923 559.143 231.136C558.557 231.349 557.89 231.456 557.143 231.456C556.41 231.456 555.757 231.356 555.183 231.156C554.61 230.943 554.123 230.623 553.723 230.196C553.27 229.703 552.917 229.096 552.663 228.376C552.423 227.643 552.303 226.849 552.303 225.996C552.303 225.129 552.43 224.303 552.683 223.516C552.937 222.716 553.303 222.063 553.783 221.556C554.21 221.103 554.703 220.776 555.263 220.576C555.837 220.363 556.49 220.256 557.223 220.256C557.957 220.256 558.617 220.363 559.203 220.576C559.79 220.776 560.283 221.089 560.683 221.516C561.15 222.009 561.503 222.629 561.743 223.376C561.983 224.109 562.103 224.903 562.103 225.756ZM554.443 225.776C554.443 226.589 554.503 227.296 554.623 227.896C554.757 228.483 554.937 228.969 555.163 229.356C555.39 229.689 555.657 229.949 555.963 230.136C556.283 230.323 556.697 230.416 557.203 230.416C558.123 230.416 558.81 230.103 559.263 229.476C559.503 229.129 559.677 228.649 559.783 228.036C559.903 227.423 559.963 226.716 559.963 225.916C559.963 225.116 559.897 224.416 559.763 223.816C559.643 223.216 559.47 222.729 559.243 222.356C559.03 222.009 558.757 221.749 558.423 221.576C558.103 221.389 557.69 221.296 557.183 221.296C556.25 221.296 555.577 221.603 555.163 222.216C554.683 222.963 554.443 224.149 554.443 225.776ZM565.284 230.056V221.656L563.744 221.276V220.456H566.624L567.064 222.456H567.144C567.544 221.776 568.084 221.243 568.764 220.856C569.444 220.456 570.17 220.256 570.944 220.256C572.05 220.256 572.87 220.616 573.404 221.336C573.67 221.709 573.857 222.236 573.964 222.916C574.084 223.583 574.144 224.489 574.144 225.636V230.056L575.684 230.436V231.256H570.864V230.436L572.204 230.056V225.596C572.204 224.729 572.177 224.083 572.124 223.656C572.084 223.229 572.004 222.896 571.884 222.656C571.724 222.336 571.49 222.096 571.184 221.936C570.89 221.763 570.537 221.676 570.124 221.676C569.35 221.676 568.684 221.923 568.124 222.416C567.577 222.909 567.277 223.676 567.224 224.716V230.056L568.564 230.436V231.256H563.744V230.436L565.284 230.056Z" fill="white"/>
<g filter="url(#filter0_d_36_2)">
<path d="M44.596 145.544C67.0166 145.544 85.192 127.387 85.192 104.99C85.192 82.5926 67.0166 64.436 44.596 64.436C22.1754 64.436 4 82.5926 4 104.99C4 127.387 22.1754 145.544 44.596 145.544Z" fill="white"/>
</g>
<path d="M44.952 111.591V88.671H39.872V86.631C40.512 86.631 41.2587 86.5643 42.112 86.431C42.9654 86.271 43.7654 86.0577 44.512 85.791C45.2854 85.5243 45.8187 85.191 46.112 84.791H48.832V111.591L53.112 112.351V113.991H39.872V112.351L44.952 111.591Z" fill="#253133"/>
<path d="M112.182 115.501H114.972C115.62 115.501 116.172 115.405 116.628 115.213C117.096 115.021 117.48 114.721 117.78 114.313C118.116 113.893 118.362 113.341 118.518 112.657C118.686 111.973 118.77 111.157 118.77 110.209C118.77 108.337 118.44 106.945 117.78 106.033C117.468 105.577 117.066 105.241 116.574 105.025C116.082 104.809 115.488 104.701 114.792 104.701H112.182V115.501ZM108.87 103.621H114.918C116.706 103.621 118.098 104.125 119.094 105.133C119.658 105.709 120.09 106.417 120.39 107.257C120.69 108.097 120.84 108.997 120.84 109.957C120.84 110.965 120.678 111.913 120.354 112.801C120.042 113.677 119.604 114.415 119.04 115.015C118.044 116.059 116.616 116.581 114.756 116.581H108.87V115.807L110.382 115.429V104.773L108.87 104.395V103.621ZM130.733 111.829H124.451C124.451 112.705 124.571 113.431 124.811 114.007C125.051 114.559 125.393 114.955 125.837 115.195C126.281 115.435 126.761 115.555 127.277 115.555C127.841 115.555 128.357 115.441 128.825 115.213C129.293 114.973 129.713 114.649 130.085 114.241L130.661 114.673C130.241 115.249 129.731 115.741 129.131 116.149C128.531 116.557 127.757 116.761 126.809 116.761C125.981 116.761 125.249 116.587 124.613 116.239C123.977 115.879 123.491 115.357 123.155 114.673C122.975 114.301 122.843 113.887 122.759 113.431C122.675 112.975 122.633 112.489 122.633 111.973C122.633 110.293 123.017 108.991 123.785 108.067C124.565 107.143 125.621 106.681 126.953 106.681C128.177 106.681 129.119 107.065 129.779 107.833C130.451 108.589 130.787 109.639 130.787 110.983C130.787 111.103 130.781 111.217 130.769 111.325C130.769 111.421 130.757 111.589 130.733 111.829ZM126.845 107.653C125.405 107.653 124.613 108.751 124.469 110.947H128.969V110.353C128.969 109.489 128.783 108.823 128.411 108.355C128.051 107.887 127.529 107.653 126.845 107.653ZM131.902 107.761V107.113L133.648 106.861V106.681C133.648 105.349 134.038 104.299 134.818 103.531C135.598 102.751 136.654 102.361 137.986 102.361C138.91 102.361 139.654 102.547 140.218 102.919C140.782 103.279 141.064 103.765 141.064 104.377C141.064 105.049 140.746 105.385 140.11 105.385C139.81 105.385 139.582 105.313 139.426 105.169C139.282 105.013 139.21 104.785 139.21 104.485C139.21 104.197 139.306 103.885 139.498 103.549C139.09 103.213 138.562 103.045 137.914 103.045C137.47 103.045 137.08 103.105 136.744 103.225C136.252 103.393 135.904 103.687 135.7 104.107C135.496 104.515 135.394 105.133 135.394 105.961V106.861H141.046V115.501L142.432 115.843V116.581H138.094V115.843L139.3 115.501V107.761H135.394V115.501L136.798 115.843V116.581H132.262V115.843L133.648 115.501V107.761H131.902ZM144.915 115.501V107.941L143.529 107.599V106.861H146.121L146.517 108.661H146.589C146.949 108.049 147.435 107.569 148.047 107.221C148.659 106.861 149.313 106.681 150.009 106.681C151.005 106.681 151.743 107.005 152.223 107.653C152.463 107.989 152.631 108.463 152.727 109.075C152.835 109.675 152.889 110.491 152.889 111.523V115.501L154.275 115.843V116.581H149.937V115.843L151.143 115.501V111.487C151.143 110.707 151.119 110.125 151.071 109.741C151.035 109.357 150.963 109.057 150.855 108.841C150.711 108.553 150.501 108.337 150.225 108.193C149.961 108.037 149.643 107.959 149.271 107.959C148.575 107.959 147.975 108.181 147.471 108.625C146.979 109.069 146.709 109.759 146.661 110.695V115.501L147.867 115.843V116.581H143.529V115.843L144.915 115.501ZM163.622 111.829H157.34C157.34 112.705 157.46 113.431 157.7 114.007C157.94 114.559 158.282 114.955 158.726 115.195C159.17 115.435 159.65 115.555 160.166 115.555C160.73 115.555 161.246 115.441 161.714 115.213C162.182 114.973 162.602 114.649 162.974 114.241L163.55 114.673C163.13 115.249 162.62 115.741 162.02 116.149C161.42 116.557 160.646 116.761 159.698 116.761C158.87 116.761 158.138 116.587 157.502 116.239C156.866 115.879 156.38 115.357 156.044 114.673C155.864 114.301 155.732 113.887 155.648 113.431C155.564 112.975 155.522 112.489 155.522 111.973C155.522 110.293 155.906 108.991 156.674 108.067C157.454 107.143 158.51 106.681 159.842 106.681C161.066 106.681 162.008 107.065 162.668 107.833C163.34 108.589 163.676 109.639 163.676 110.983C163.676 111.103 163.67 111.217 163.658 111.325C163.658 111.421 163.646 111.589 163.622 111.829ZM159.734 107.653C158.294 107.653 157.502 108.751 157.358 110.947H161.858V110.353C161.858 109.489 161.672 108.823 161.3 108.355C160.94 107.887 160.418 107.653 159.734 107.653ZM177.779 107.941L174.791 116.149C174.455 117.073 174.149 117.817 173.873 118.381C173.597 118.957 173.291 119.371 172.955 119.623C172.619 119.875 172.187 120.001 171.659 120.001C171.095 120.001 170.609 119.851 170.201 119.551C169.805 119.251 169.607 118.873 169.607 118.417C169.607 118.081 169.703 117.799 169.895 117.571C170.087 117.355 170.339 117.247 170.651 117.247C170.927 117.247 171.143 117.319 171.299 117.463C171.467 117.619 171.551 117.829 171.551 118.093C171.551 118.261 171.515 118.423 171.443 118.579C171.383 118.735 171.299 118.873 171.191 118.993C171.215 119.113 171.287 119.191 171.407 119.227C171.527 119.275 171.629 119.299 171.713 119.299C171.881 119.299 172.037 119.257 172.181 119.173C172.325 119.089 172.475 118.909 172.631 118.633C172.799 118.369 172.979 117.949 173.171 117.373L173.387 116.707L169.661 107.941L168.581 107.599V106.861H172.613L172.757 107.599L171.479 107.941L174.161 114.997H174.233L176.501 107.941L175.457 107.599V106.861H178.877V107.599L177.779 107.941ZM188.406 111.631C188.406 112.411 188.286 113.155 188.046 113.863C187.818 114.559 187.494 115.135 187.074 115.591C186.714 115.987 186.27 116.281 185.742 116.473C185.214 116.665 184.614 116.761 183.942 116.761C183.282 116.761 182.694 116.671 182.178 116.491C181.662 116.299 181.224 116.011 180.864 115.627C180.456 115.183 180.138 114.637 179.91 113.989C179.694 113.329 179.586 112.615 179.586 111.847C179.586 111.067 179.7 110.323 179.928 109.615C180.156 108.895 180.486 108.307 180.918 107.851C181.302 107.443 181.746 107.149 182.25 106.969C182.766 106.777 183.354 106.681 184.014 106.681C184.674 106.681 185.268 106.777 185.796 106.969C186.324 107.149 186.768 107.431 187.128 107.815C187.548 108.259 187.866 108.817 188.082 109.489C188.298 110.149 188.406 110.863 188.406 111.631ZM181.512 111.649C181.512 112.381 181.566 113.017 181.674 113.557C181.794 114.085 181.956 114.523 182.16 114.871C182.364 115.171 182.604 115.405 182.88 115.573C183.168 115.741 183.54 115.825 183.996 115.825C184.824 115.825 185.442 115.543 185.85 114.979C186.066 114.667 186.222 114.235 186.318 113.683C186.426 113.131 186.48 112.495 186.48 111.775C186.48 111.055 186.42 110.425 186.3 109.885C186.192 109.345 186.036 108.907 185.832 108.571C185.64 108.259 185.394 108.025 185.094 107.869C184.806 107.701 184.434 107.617 183.978 107.617C183.138 107.617 182.532 107.893 182.16 108.445C181.728 109.117 181.512 110.185 181.512 111.649ZM192.708 106.861V111.955C192.708 112.723 192.726 113.305 192.762 113.701C192.81 114.085 192.888 114.385 192.996 114.601C193.128 114.889 193.326 115.111 193.59 115.267C193.854 115.411 194.16 115.483 194.508 115.483C194.832 115.483 195.144 115.423 195.444 115.303C195.744 115.183 196.008 115.021 196.236 114.817C196.728 114.373 196.998 113.683 197.046 112.747V107.941L195.48 107.599V106.861H198.792V115.501L200.178 115.843V116.581L197.388 116.761L197.19 114.781H197.118C196.77 115.393 196.296 115.879 195.696 116.239C195.096 116.587 194.454 116.761 193.77 116.761C193.314 116.761 192.894 116.677 192.51 116.509C192.138 116.329 191.844 116.089 191.628 115.789C191.4 115.453 191.232 114.979 191.124 114.367C191.016 113.755 190.962 112.939 190.962 111.919V107.941L189.756 107.599V106.861H192.708ZM206.691 107.905C206.643 107.869 206.583 107.845 206.511 107.833C206.451 107.809 206.391 107.797 206.331 107.797C206.187 107.797 206.031 107.863 205.863 107.995C205.695 108.127 205.533 108.307 205.377 108.535C205.221 108.751 205.077 109.003 204.945 109.291C204.777 109.699 204.645 110.149 204.549 110.641C204.453 111.121 204.405 111.619 204.405 112.135V115.501L206.349 115.843V116.581H201.273V115.843L202.659 115.501V107.941L201.273 107.599V106.861H203.865L204.261 109.237H204.333C204.609 108.421 204.981 107.791 205.449 107.347C205.917 106.903 206.433 106.681 206.997 106.681C207.465 106.681 207.855 106.831 208.167 107.131C208.479 107.419 208.635 107.809 208.635 108.301C208.635 108.661 208.539 108.949 208.347 109.165C208.167 109.369 207.921 109.471 207.609 109.471C207.297 109.471 207.051 109.375 206.871 109.183C206.691 108.979 206.601 108.715 206.601 108.391C206.601 108.319 206.607 108.253 206.619 108.193C206.631 108.121 206.655 108.025 206.691 107.905Z" fill="#253133"/>
<path d="M110.04 135.501V127.941L108.654 127.599V126.861H111.246L111.642 128.661H111.714C112.062 128.061 112.524 127.581 113.1 127.221C113.688 126.861 114.312 126.681 114.972 126.681C115.464 126.681 115.902 126.777 116.286 126.969C116.67 127.149 116.952 127.377 117.132 127.653C117.324 127.953 117.48 128.349 117.6 128.841C117.984 128.169 118.482 127.641 119.094 127.257C119.706 126.873 120.36 126.681 121.056 126.681C121.536 126.681 121.968 126.777 122.352 126.969C122.736 127.149 123.03 127.401 123.234 127.725C123.378 127.953 123.492 128.247 123.576 128.607C123.66 128.967 123.72 129.435 123.756 130.011C123.792 130.575 123.81 131.295 123.81 132.171V135.501L125.196 135.843V136.581H120.858V135.843L122.064 135.501V131.487C122.064 130.707 122.04 130.125 121.992 129.741C121.956 129.357 121.884 129.057 121.776 128.841C121.632 128.553 121.428 128.337 121.164 128.193C120.912 128.037 120.612 127.959 120.264 127.959C119.964 127.959 119.67 128.019 119.382 128.139C119.094 128.259 118.836 128.421 118.608 128.625C118.344 128.865 118.146 129.147 118.014 129.471C117.894 129.795 117.822 130.203 117.798 130.695V135.501L119.004 135.843V136.581H114.846V135.843L116.052 135.501V131.487C116.052 130.707 116.028 130.125 115.98 129.741C115.944 129.357 115.872 129.057 115.764 128.841C115.62 128.553 115.416 128.337 115.152 128.193C114.9 128.037 114.6 127.959 114.252 127.959C113.952 127.959 113.658 128.019 113.37 128.139C113.082 128.259 112.824 128.421 112.596 128.625C112.332 128.865 112.134 129.147 112.002 129.471C111.882 129.795 111.81 130.203 111.786 130.695V135.501L112.992 135.843V136.581H108.654V135.843L110.04 135.501ZM126.233 134.475C126.233 133.539 126.671 132.801 127.547 132.261C128.423 131.721 129.875 131.301 131.903 131.001C131.855 130.293 131.789 129.741 131.705 129.345C131.621 128.949 131.513 128.631 131.381 128.391C131.213 128.079 130.979 127.851 130.679 127.707C130.379 127.551 130.055 127.473 129.707 127.473C129.371 127.473 129.065 127.533 128.789 127.653C128.525 127.773 128.345 127.935 128.249 128.139C128.417 128.259 128.537 128.415 128.609 128.607C128.693 128.799 128.735 128.979 128.735 129.147C128.735 129.447 128.633 129.687 128.429 129.867C128.237 130.035 127.997 130.119 127.709 130.119C127.421 130.119 127.181 130.023 126.989 129.831C126.809 129.639 126.719 129.369 126.719 129.021C126.719 128.517 126.893 128.091 127.241 127.743C127.589 127.395 128.027 127.131 128.555 126.951C129.095 126.771 129.635 126.681 130.175 126.681C130.667 126.681 131.117 126.759 131.525 126.915C131.945 127.059 132.299 127.275 132.587 127.563C133.331 128.307 133.703 129.627 133.703 131.523V134.133C133.703 134.721 133.739 135.129 133.811 135.357C133.895 135.585 134.069 135.699 134.333 135.699H135.143V136.239C134.279 136.587 133.607 136.761 133.127 136.761C132.755 136.761 132.503 136.629 132.371 136.365C132.251 136.089 132.191 135.567 132.191 134.799H132.119C131.747 135.411 131.255 135.891 130.643 136.239C130.031 136.587 129.371 136.761 128.663 136.761C127.907 136.761 127.313 136.557 126.881 136.149C126.449 135.741 126.233 135.183 126.233 134.475ZM129.419 135.717C129.755 135.717 130.103 135.633 130.463 135.465C130.835 135.285 131.147 135.039 131.399 134.727C131.591 134.487 131.729 134.205 131.813 133.881C131.909 133.545 131.957 133.155 131.957 132.711C131.957 132.507 131.951 132.309 131.939 132.117C131.927 131.913 131.909 131.721 131.885 131.541C130.913 131.733 130.151 131.943 129.599 132.171C129.047 132.387 128.657 132.651 128.429 132.963C128.201 133.263 128.087 133.641 128.087 134.097C128.087 134.613 128.201 135.015 128.429 135.303C128.669 135.579 128.999 135.717 129.419 135.717ZM141.283 127.905C141.235 127.869 141.175 127.845 141.103 127.833C141.043 127.809 140.983 127.797 140.923 127.797C140.779 127.797 140.623 127.863 140.455 127.995C140.287 128.127 140.125 128.307 139.969 128.535C139.813 128.751 139.669 129.003 139.537 129.291C139.369 129.699 139.237 130.149 139.141 130.641C139.045 131.121 138.997 131.619 138.997 132.135V135.501L140.941 135.843V136.581H135.865V135.843L137.251 135.501V127.941L135.865 127.599V126.861H138.457L138.853 129.237H138.925C139.201 128.421 139.573 127.791 140.041 127.347C140.509 126.903 141.025 126.681 141.589 126.681C142.057 126.681 142.447 126.831 142.759 127.131C143.071 127.419 143.227 127.809 143.227 128.301C143.227 128.661 143.131 128.949 142.939 129.165C142.759 129.369 142.513 129.471 142.201 129.471C141.889 129.471 141.643 129.375 141.463 129.183C141.283 128.979 141.193 128.715 141.193 128.391C141.193 128.319 141.199 128.253 141.211 128.193C141.223 128.121 141.247 128.025 141.283 127.905ZM150.121 135.843L151.183 135.501L148.411 131.757L147.043 132.909V135.501L148.429 135.843V136.581H143.911V135.843L145.297 135.501V123.621L143.911 123.279V122.541H147.043V132.063L150.877 127.941L149.689 127.599V126.861H153.559V127.599L152.245 127.941L149.527 130.731L153.109 135.537L154.063 135.843V136.581H150.121V135.843ZM162.743 131.829H156.461C156.461 132.705 156.581 133.431 156.821 134.007C157.061 134.559 157.403 134.955 157.847 135.195C158.291 135.435 158.771 135.555 159.287 135.555C159.851 135.555 160.367 135.441 160.835 135.213C161.303 134.973 161.723 134.649 162.095 134.241L162.671 134.673C162.251 135.249 161.741 135.741 161.141 136.149C160.541 136.557 159.767 136.761 158.819 136.761C157.991 136.761 157.259 136.587 156.623 136.239C155.987 135.879 155.501 135.357 155.165 134.673C154.985 134.301 154.853 133.887 154.769 133.431C154.685 132.975 154.643 132.489 154.643 131.973C154.643 130.293 155.027 128.991 155.795 128.067C156.575 127.143 157.631 126.681 158.963 126.681C160.187 126.681 161.129 127.065 161.789 127.833C162.461 128.589 162.797 129.639 162.797 130.983C162.797 131.103 162.791 131.217 162.779 131.325C162.779 131.421 162.767 131.589 162.743 131.829ZM158.855 127.653C157.415 127.653 156.623 128.751 156.479 130.947H160.979V130.353C160.979 129.489 160.793 128.823 160.421 128.355C160.061 127.887 159.539 127.653 158.855 127.653ZM163.75 127.761V127.113L165.496 126.861L165.73 124.593L167.242 124.377V126.861H169.546V127.761H167.242V134.187C167.242 134.595 167.248 134.877 167.26 135.033C167.272 135.177 167.296 135.297 167.332 135.393C167.368 135.477 167.434 135.537 167.53 135.573C167.626 135.597 167.782 135.609 167.998 135.609H169.258V136.131C168.682 136.347 168.172 136.503 167.728 136.599C167.296 136.707 166.948 136.761 166.684 136.761C166.144 136.761 165.796 136.539 165.64 136.095C165.592 135.951 165.556 135.765 165.532 135.537C165.508 135.309 165.496 134.973 165.496 134.529V127.761H163.75ZM174.977 134.475C174.977 133.539 175.415 132.801 176.291 132.261C177.167 131.721 178.619 131.301 180.647 131.001C180.599 130.293 180.533 129.741 180.449 129.345C180.365 128.949 180.257 128.631 180.125 128.391C179.957 128.079 179.723 127.851 179.423 127.707C179.123 127.551 178.799 127.473 178.451 127.473C178.115 127.473 177.809 127.533 177.533 127.653C177.269 127.773 177.089 127.935 176.993 128.139C177.161 128.259 177.281 128.415 177.353 128.607C177.437 128.799 177.479 128.979 177.479 129.147C177.479 129.447 177.377 129.687 177.173 129.867C176.981 130.035 176.741 130.119 176.453 130.119C176.165 130.119 175.925 130.023 175.733 129.831C175.553 129.639 175.463 129.369 175.463 129.021C175.463 128.517 175.637 128.091 175.985 127.743C176.333 127.395 176.771 127.131 177.299 126.951C177.839 126.771 178.379 126.681 178.919 126.681C179.411 126.681 179.861 126.759 180.269 126.915C180.689 127.059 181.043 127.275 181.331 127.563C182.075 128.307 182.447 129.627 182.447 131.523V134.133C182.447 134.721 182.483 135.129 182.555 135.357C182.639 135.585 182.813 135.699 183.077 135.699H183.887V136.239C183.023 136.587 182.351 136.761 181.871 136.761C181.499 136.761 181.247 136.629 181.115 136.365C180.995 136.089 180.935 135.567 180.935 134.799H180.863C180.491 135.411 179.999 135.891 179.387 136.239C178.775 136.587 178.115 136.761 177.407 136.761C176.651 136.761 176.057 136.557 175.625 136.149C175.193 135.741 174.977 135.183 174.977 134.475ZM178.163 135.717C178.499 135.717 178.847 135.633 179.207 135.465C179.579 135.285 179.891 135.039 180.143 134.727C180.335 134.487 180.473 134.205 180.557 133.881C180.653 133.545 180.701 133.155 180.701 132.711C180.701 132.507 180.695 132.309 180.683 132.117C180.671 131.913 180.653 131.721 180.629 131.541C179.657 131.733 178.895 131.943 178.343 132.171C177.791 132.387 177.401 132.651 177.173 132.963C176.945 133.263 176.831 133.641 176.831 134.097C176.831 134.613 176.945 135.015 177.173 135.303C177.413 135.579 177.743 135.717 178.163 135.717ZM190.027 127.905C189.979 127.869 189.919 127.845 189.847 127.833C189.787 127.809 189.727 127.797 189.667 127.797C189.523 127.797 189.367 127.863 189.199 127.995C189.031 128.127 188.869 128.307 188.713 128.535C188.557 128.751 188.413 129.003 188.281 129.291C188.113 129.699 187.981 130.149 187.885 130.641C187.789 131.121 187.741 131.619 187.741 132.135V135.501L189.685 135.843V136.581H184.609V135.843L185.995 135.501V127.941L184.609 127.599V126.861H187.201L187.597 129.237H187.669C187.945 128.421 188.317 127.791 188.785 127.347C189.253 126.903 189.769 126.681 190.333 126.681C190.801 126.681 191.191 126.831 191.503 127.131C191.815 127.419 191.971 127.809 191.971 128.301C191.971 128.661 191.875 128.949 191.683 129.165C191.503 129.369 191.257 129.471 190.945 129.471C190.633 129.471 190.387 129.375 190.207 129.183C190.027 128.979 189.937 128.715 189.937 128.391C189.937 128.319 189.943 128.253 189.955 128.193C189.967 128.121 189.991 128.025 190.027 127.905ZM201.765 131.631C201.765 132.411 201.645 133.155 201.405 133.863C201.177 134.559 200.853 135.135 200.433 135.591C200.073 135.987 199.629 136.281 199.101 136.473C198.573 136.665 197.973 136.761 197.301 136.761C196.641 136.761 196.053 136.671 195.537 136.491C195.021 136.299 194.583 136.011 194.223 135.627C193.815 135.183 193.497 134.637 193.269 133.989C193.053 133.329 192.945 132.615 192.945 131.847C192.945 131.067 193.059 130.323 193.287 129.615C193.515 128.895 193.845 128.307 194.277 127.851C194.661 127.443 195.105 127.149 195.609 126.969C196.125 126.777 196.713 126.681 197.373 126.681C198.033 126.681 198.627 126.777 199.155 126.969C199.683 127.149 200.127 127.431 200.487 127.815C200.907 128.259 201.225 128.817 201.441 129.489C201.657 130.149 201.765 130.863 201.765 131.631ZM194.871 131.649C194.871 132.381 194.925 133.017 195.033 133.557C195.153 134.085 195.315 134.523 195.519 134.871C195.723 135.171 195.963 135.405 196.239 135.573C196.527 135.741 196.899 135.825 197.355 135.825C198.183 135.825 198.801 135.543 199.209 134.979C199.425 134.667 199.581 134.235 199.677 133.683C199.785 133.131 199.839 132.495 199.839 131.775C199.839 131.055 199.779 130.425 199.659 129.885C199.551 129.345 199.395 128.907 199.191 128.571C198.999 128.259 198.753 128.025 198.453 127.869C198.165 127.701 197.793 127.617 197.337 127.617C196.497 127.617 195.891 127.893 195.519 128.445C195.087 129.117 194.871 130.185 194.871 131.649ZM206.068 126.861V131.955C206.068 132.723 206.086 133.305 206.122 133.701C206.17 134.085 206.248 134.385 206.356 134.601C206.488 134.889 206.686 135.111 206.95 135.267C207.214 135.411 207.52 135.483 207.868 135.483C208.192 135.483 208.504 135.423 208.804 135.303C209.104 135.183 209.368 135.021 209.596 134.817C210.088 134.373 210.358 133.683 210.406 132.747V127.941L208.84 127.599V126.861H212.152V135.501L213.538 135.843V136.581L210.748 136.761L210.55 134.781H210.478C210.13 135.393 209.656 135.879 209.056 136.239C208.456 136.587 207.814 136.761 207.13 136.761C206.674 136.761 206.254 136.677 205.87 136.509C205.498 136.329 205.204 136.089 204.988 135.789C204.76 135.453 204.592 134.979 204.484 134.367C204.376 133.755 204.322 132.939 204.322 131.919V127.941L203.116 127.599V126.861H206.068ZM216.018 135.501V127.941L214.632 127.599V126.861H217.224L217.62 128.661H217.692C218.052 128.049 218.538 127.569 219.15 127.221C219.762 126.861 220.416 126.681 221.112 126.681C222.108 126.681 222.846 127.005 223.326 127.653C223.566 127.989 223.734 128.463 223.83 129.075C223.938 129.675 223.992 130.491 223.992 131.523V135.501L225.378 135.843V136.581H221.04V135.843L222.246 135.501V131.487C222.246 130.707 222.222 130.125 222.174 129.741C222.138 129.357 222.066 129.057 221.958 128.841C221.814 128.553 221.604 128.337 221.328 128.193C221.064 128.037 220.746 127.959 220.374 127.959C219.678 127.959 219.078 128.181 218.574 128.625C218.082 129.069 217.812 129.759 217.764 130.695V135.501L218.97 135.843V136.581H214.632V135.843L216.018 135.501ZM226.607 131.811C226.607 131.031 226.709 130.287 226.913 129.579C227.117 128.871 227.423 128.295 227.831 127.851C228.179 127.467 228.593 127.179 229.073 126.987C229.553 126.783 230.105 126.681 230.729 126.681C231.257 126.681 231.737 126.783 232.169 126.987C232.613 127.191 233.009 127.557 233.357 128.085V123.621L231.971 123.279V122.541H235.103V135.501L236.489 135.843V136.581L233.699 136.761L233.555 135.285C233.183 135.837 232.763 136.221 232.295 136.437C231.827 136.653 231.305 136.761 230.729 136.761C230.117 136.761 229.565 136.671 229.073 136.491C228.581 136.311 228.173 136.023 227.849 135.627C227.465 135.159 227.159 134.601 226.931 133.953C226.715 133.293 226.607 132.579 226.607 131.811ZM233.357 131.793C233.357 131.061 233.303 130.425 233.195 129.885C233.087 129.345 232.931 128.907 232.727 128.571C232.535 128.259 232.301 128.025 232.025 127.869C231.749 127.701 231.383 127.617 230.927 127.617C230.519 127.617 230.159 127.689 229.847 127.833C229.547 127.977 229.301 128.187 229.109 128.463C228.893 128.763 228.737 129.195 228.641 129.759C228.545 130.311 228.497 130.947 228.497 131.667C228.497 132.387 228.551 133.017 228.659 133.557C228.767 134.085 228.923 134.523 229.127 134.871C229.331 135.171 229.571 135.405 229.847 135.573C230.135 135.741 230.501 135.825 230.945 135.825C231.365 135.825 231.725 135.759 232.025 135.627C232.337 135.483 232.571 135.273 232.727 134.997C232.931 134.661 233.087 134.229 233.195 133.701C233.303 133.161 233.357 132.525 233.357 131.793ZM241.674 127.761V127.113L243.42 126.861L243.654 124.593L245.166 124.377V126.861H247.47V127.761H245.166V134.187C245.166 134.595 245.172 134.877 245.184 135.033C245.196 135.177 245.22 135.297 245.256 135.393C245.292 135.477 245.358 135.537 245.454 135.573C245.55 135.597 245.706 135.609 245.922 135.609H247.182V136.131C246.606 136.347 246.096 136.503 245.652 136.599C245.22 136.707 244.872 136.761 244.608 136.761C244.068 136.761 243.72 136.539 243.564 136.095C243.516 135.951 243.48 135.765 243.456 135.537C243.432 135.309 243.42 134.973 243.42 134.529V127.761H241.674ZM255.711 135.501V131.487C255.711 130.707 255.687 130.125 255.639 129.741C255.603 129.357 255.531 129.057 255.423 128.841C255.135 128.253 254.607 127.959 253.839 127.959C253.503 127.959 253.179 128.019 252.867 128.139C252.555 128.259 252.279 128.421 252.039 128.625C251.775 128.853 251.577 129.129 251.445 129.453C251.325 129.765 251.253 130.155 251.229 130.623V135.501L252.435 135.843V136.581H248.097V135.843L249.483 135.501V123.621L248.097 123.279V122.541H251.229V128.553C251.589 127.977 252.063 127.521 252.651 127.185C253.251 126.849 253.893 126.681 254.577 126.681C255.057 126.681 255.489 126.765 255.873 126.933C256.257 127.101 256.563 127.341 256.791 127.653C257.031 127.989 257.199 128.463 257.295 129.075C257.403 129.675 257.457 130.491 257.457 131.523V135.501L258.843 135.843V136.581H254.505V135.843L255.711 135.501ZM268.177 131.829H261.895C261.895 132.705 262.015 133.431 262.255 134.007C262.495 134.559 262.837 134.955 263.281 135.195C263.725 135.435 264.205 135.555 264.721 135.555C265.285 135.555 265.801 135.441 266.269 135.213C266.737 134.973 267.157 134.649 267.529 134.241L268.105 134.673C267.685 135.249 267.175 135.741 266.575 136.149C265.975 136.557 265.201 136.761 264.253 136.761C263.425 136.761 262.693 136.587 262.057 136.239C261.421 135.879 260.935 135.357 260.599 134.673C260.419 134.301 260.287 133.887 260.203 133.431C260.119 132.975 260.077 132.489 260.077 131.973C260.077 130.293 260.461 128.991 261.229 128.067C262.009 127.143 263.065 126.681 264.397 126.681C265.621 126.681 266.563 127.065 267.223 127.833C267.895 128.589 268.231 129.639 268.231 130.983C268.231 131.103 268.225 131.217 268.213 131.325C268.213 131.421 268.201 131.589 268.177 131.829ZM264.289 127.653C262.849 127.653 262.057 128.751 261.913 130.947H266.413V130.353C266.413 129.489 266.227 128.823 265.855 128.355C265.495 127.887 264.973 127.653 264.289 127.653Z" fill="#253133"/>
<path d="M114.576 152.855V144.773L112.794 144.395V143.621H117.798V144.395L116.376 144.773V152.657C116.376 153.485 116.196 154.211 115.836 154.835C115.488 155.447 114.996 155.927 114.36 156.275C113.724 156.611 112.98 156.779 112.128 156.779C111.384 156.779 110.724 156.641 110.148 156.365C109.572 156.077 109.122 155.681 108.798 155.177C108.486 154.673 108.33 154.091 108.33 153.431C108.33 152.939 108.426 152.567 108.618 152.315C108.822 152.051 109.122 151.919 109.518 151.919C109.866 151.919 110.142 152.015 110.346 152.207C110.55 152.399 110.652 152.651 110.652 152.963C110.652 153.239 110.574 153.521 110.418 153.809C110.262 154.085 110.082 154.271 109.878 154.367C109.878 154.751 110.082 155.075 110.49 155.339C110.91 155.603 111.45 155.735 112.11 155.735C112.962 155.735 113.586 155.495 113.982 155.015C114.378 154.535 114.576 153.815 114.576 152.855ZM127.691 151.631C127.691 152.411 127.571 153.155 127.331 153.863C127.103 154.559 126.779 155.135 126.359 155.591C125.999 155.987 125.555 156.281 125.027 156.473C124.499 156.665 123.899 156.761 123.227 156.761C122.567 156.761 121.979 156.671 121.463 156.491C120.947 156.299 120.509 156.011 120.149 155.627C119.741 155.183 119.423 154.637 119.195 153.989C118.979 153.329 118.871 152.615 118.871 151.847C118.871 151.067 118.985 150.323 119.213 149.615C119.441 148.895 119.771 148.307 120.203 147.851C120.587 147.443 121.031 147.149 121.535 146.969C122.051 146.777 122.639 146.681 123.299 146.681C123.959 146.681 124.553 146.777 125.081 146.969C125.609 147.149 126.053 147.431 126.413 147.815C126.833 148.259 127.151 148.817 127.367 149.489C127.583 150.149 127.691 150.863 127.691 151.631ZM120.797 151.649C120.797 152.381 120.851 153.017 120.959 153.557C121.079 154.085 121.241 154.523 121.445 154.871C121.649 155.171 121.889 155.405 122.165 155.573C122.453 155.741 122.825 155.825 123.281 155.825C124.109 155.825 124.727 155.543 125.135 154.979C125.351 154.667 125.507 154.235 125.603 153.683C125.711 153.131 125.765 152.495 125.765 151.775C125.765 151.055 125.705 150.425 125.585 149.885C125.477 149.345 125.321 148.907 125.117 148.571C124.925 148.259 124.679 148.025 124.379 147.869C124.091 147.701 123.719 147.617 123.263 147.617C122.423 147.617 121.817 147.893 121.445 148.445C121.013 149.117 120.797 150.185 120.797 151.649ZM138.51 151.631C138.51 152.411 138.396 153.149 138.168 153.845C137.94 154.541 137.622 155.123 137.214 155.591C136.542 156.371 135.576 156.761 134.316 156.761C133.704 156.761 133.158 156.623 132.678 156.347C132.198 156.059 131.772 155.531 131.4 154.763L130.86 156.581H130.014V143.621L128.628 143.279V142.541H131.76V147.905C132.12 147.449 132.522 147.131 132.966 146.951C133.41 146.771 133.908 146.681 134.46 146.681C135.072 146.681 135.624 146.771 136.116 146.951C136.62 147.131 137.028 147.419 137.34 147.815C137.712 148.271 138 148.829 138.204 149.489C138.408 150.149 138.51 150.863 138.51 151.631ZM131.76 151.649C131.76 152.381 131.814 153.017 131.922 153.557C132.03 154.097 132.186 154.535 132.39 154.871C132.582 155.171 132.816 155.405 133.092 155.573C133.38 155.741 133.746 155.825 134.19 155.825C134.598 155.825 134.952 155.753 135.252 155.609C135.564 155.453 135.816 155.243 136.008 154.979C136.224 154.667 136.38 154.235 136.476 153.683C136.572 153.131 136.62 152.495 136.62 151.775C136.62 151.055 136.566 150.425 136.458 149.885C136.35 149.345 136.194 148.907 135.99 148.571C135.798 148.259 135.558 148.025 135.27 147.869C134.994 147.701 134.628 147.617 134.172 147.617C133.764 147.617 133.404 147.689 133.092 147.833C132.792 147.965 132.558 148.169 132.39 148.445C132.198 148.781 132.042 149.219 131.922 149.759C131.814 150.287 131.76 150.917 131.76 151.649ZM140.572 152.189V150.983H145.09V152.189H140.572ZM146.488 147.761V147.113L148.234 146.861L148.468 144.593L149.98 144.377V146.861H152.284V147.761H149.98V154.187C149.98 154.595 149.986 154.877 149.998 155.033C150.01 155.177 150.034 155.297 150.07 155.393C150.106 155.477 150.172 155.537 150.268 155.573C150.364 155.597 150.52 155.609 150.736 155.609H151.996V156.131C151.42 156.347 150.91 156.503 150.466 156.599C150.034 156.707 149.686 156.761 149.422 156.761C148.882 156.761 148.534 156.539 148.378 156.095C148.33 155.951 148.294 155.765 148.27 155.537C148.246 155.309 148.234 154.973 148.234 154.529V147.761H146.488ZM162.109 151.631C162.109 152.411 161.989 153.155 161.749 153.863C161.521 154.559 161.197 155.135 160.777 155.591C160.417 155.987 159.973 156.281 159.445 156.473C158.917 156.665 158.317 156.761 157.645 156.761C156.985 156.761 156.397 156.671 155.881 156.491C155.365 156.299 154.927 156.011 154.567 155.627C154.159 155.183 153.841 154.637 153.613 153.989C153.397 153.329 153.289 152.615 153.289 151.847C153.289 151.067 153.403 150.323 153.631 149.615C153.859 148.895 154.189 148.307 154.621 147.851C155.005 147.443 155.449 147.149 155.953 146.969C156.469 146.777 157.057 146.681 157.717 146.681C158.377 146.681 158.971 146.777 159.499 146.969C160.027 147.149 160.471 147.431 160.831 147.815C161.251 148.259 161.569 148.817 161.785 149.489C162.001 150.149 162.109 150.863 162.109 151.631ZM155.215 151.649C155.215 152.381 155.269 153.017 155.377 153.557C155.497 154.085 155.659 154.523 155.863 154.871C156.067 155.171 156.307 155.405 156.583 155.573C156.871 155.741 157.243 155.825 157.699 155.825C158.527 155.825 159.145 155.543 159.553 154.979C159.769 154.667 159.925 154.235 160.021 153.683C160.129 153.131 160.183 152.495 160.183 151.775C160.183 151.055 160.123 150.425 160.003 149.885C159.895 149.345 159.739 148.907 159.535 148.571C159.343 148.259 159.097 148.025 158.797 147.869C158.509 147.701 158.137 147.617 157.681 147.617C156.841 147.617 156.235 147.893 155.863 148.445C155.431 149.117 155.215 150.185 155.215 151.649ZM164.18 152.189V150.983H168.698V152.189H164.18ZM179.924 151.631C179.924 152.411 179.81 153.149 179.582 153.845C179.354 154.541 179.036 155.123 178.628 155.591C177.956 156.371 176.99 156.761 175.73 156.761C175.118 156.761 174.572 156.623 174.092 156.347C173.612 156.059 173.186 155.531 172.814 154.763L172.274 156.581H171.428V143.621L170.042 143.279V142.541H173.174V147.905C173.534 147.449 173.936 147.131 174.38 146.951C174.824 146.771 175.322 146.681 175.874 146.681C176.486 146.681 177.038 146.771 177.53 146.951C178.034 147.131 178.442 147.419 178.754 147.815C179.126 148.271 179.414 148.829 179.618 149.489C179.822 150.149 179.924 150.863 179.924 151.631ZM173.174 151.649C173.174 152.381 173.228 153.017 173.336 153.557C173.444 154.097 173.6 154.535 173.804 154.871C173.996 155.171 174.23 155.405 174.506 155.573C174.794 155.741 175.16 155.825 175.604 155.825C176.012 155.825 176.366 155.753 176.666 155.609C176.978 155.453 177.23 155.243 177.422 154.979C177.638 154.667 177.794 154.235 177.89 153.683C177.986 153.131 178.034 152.495 178.034 151.775C178.034 151.055 177.98 150.425 177.872 149.885C177.764 149.345 177.608 148.907 177.404 148.571C177.212 148.259 176.972 148.025 176.684 147.869C176.408 147.701 176.042 147.617 175.586 147.617C175.178 147.617 174.818 147.689 174.506 147.833C174.206 147.965 173.972 148.169 173.804 148.445C173.612 148.781 173.456 149.219 173.336 149.759C173.228 150.287 173.174 150.917 173.174 151.649ZM189.69 151.829H183.408C183.408 152.705 183.528 153.431 183.768 154.007C184.008 154.559 184.35 154.955 184.794 155.195C185.238 155.435 185.718 155.555 186.234 155.555C186.798 155.555 187.314 155.441 187.782 155.213C188.25 154.973 188.67 154.649 189.042 154.241L189.618 154.673C189.198 155.249 188.688 155.741 188.088 156.149C187.488 156.557 186.714 156.761 185.766 156.761C184.938 156.761 184.206 156.587 183.57 156.239C182.934 155.879 182.448 155.357 182.112 154.673C181.932 154.301 181.8 153.887 181.716 153.431C181.632 152.975 181.59 152.489 181.59 151.973C181.59 150.293 181.974 148.991 182.742 148.067C183.522 147.143 184.578 146.681 185.91 146.681C187.134 146.681 188.076 147.065 188.736 147.833C189.408 148.589 189.744 149.639 189.744 150.983C189.744 151.103 189.738 151.217 189.726 151.325C189.726 151.421 189.714 151.589 189.69 151.829ZM185.802 147.653C184.362 147.653 183.57 148.751 183.426 150.947H187.926V150.353C187.926 149.489 187.74 148.823 187.368 148.355C187.008 147.887 186.486 147.653 185.802 147.653ZM191.777 152.189V150.983H196.295V152.189H191.777ZM198.359 151.811C198.359 151.031 198.461 150.287 198.665 149.579C198.869 148.871 199.175 148.295 199.583 147.851C199.931 147.467 200.345 147.179 200.825 146.987C201.305 146.783 201.857 146.681 202.481 146.681C203.009 146.681 203.489 146.783 203.921 146.987C204.365 147.191 204.761 147.557 205.109 148.085V143.621L203.723 143.279V142.541H206.855V155.501L208.241 155.843V156.581L205.451 156.761L205.307 155.285C204.935 155.837 204.515 156.221 204.047 156.437C203.579 156.653 203.057 156.761 202.481 156.761C201.869 156.761 201.317 156.671 200.825 156.491C200.333 156.311 199.925 156.023 199.601 155.627C199.217 155.159 198.911 154.601 198.683 153.953C198.467 153.293 198.359 152.579 198.359 151.811ZM205.109 151.793C205.109 151.061 205.055 150.425 204.947 149.885C204.839 149.345 204.683 148.907 204.479 148.571C204.287 148.259 204.053 148.025 203.777 147.869C203.501 147.701 203.135 147.617 202.679 147.617C202.271 147.617 201.911 147.689 201.599 147.833C201.299 147.977 201.053 148.187 200.861 148.463C200.645 148.763 200.489 149.195 200.393 149.759C200.297 150.311 200.249 150.947 200.249 151.667C200.249 152.387 200.303 153.017 200.411 153.557C200.519 154.085 200.675 154.523 200.879 154.871C201.083 155.171 201.323 155.405 201.599 155.573C201.887 155.741 202.253 155.825 202.697 155.825C203.117 155.825 203.477 155.759 203.777 155.627C204.089 155.483 204.323 155.273 204.479 154.997C204.683 154.661 204.839 154.229 204.947 153.701C205.055 153.161 205.109 152.525 205.109 151.793ZM218.341 151.631C218.341 152.411 218.221 153.155 217.981 153.863C217.753 154.559 217.429 155.135 217.009 155.591C216.649 155.987 216.205 156.281 215.677 156.473C215.149 156.665 214.549 156.761 213.877 156.761C213.217 156.761 212.629 156.671 212.113 156.491C211.597 156.299 211.159 156.011 210.799 155.627C210.391 155.183 210.073 154.637 209.845 153.989C209.629 153.329 209.521 152.615 209.521 151.847C209.521 151.067 209.635 150.323 209.863 149.615C210.091 148.895 210.421 148.307 210.853 147.851C211.237 147.443 211.681 147.149 212.185 146.969C212.701 146.777 213.289 146.681 213.949 146.681C214.609 146.681 215.203 146.777 215.731 146.969C216.259 147.149 216.703 147.431 217.063 147.815C217.483 148.259 217.801 148.817 218.017 149.489C218.233 150.149 218.341 150.863 218.341 151.631ZM211.447 151.649C211.447 152.381 211.501 153.017 211.609 153.557C211.729 154.085 211.891 154.523 212.095 154.871C212.299 155.171 212.539 155.405 212.815 155.573C213.103 155.741 213.475 155.825 213.931 155.825C214.759 155.825 215.377 155.543 215.785 154.979C216.001 154.667 216.157 154.235 216.253 153.683C216.361 153.131 216.415 152.495 216.415 151.775C216.415 151.055 216.355 150.425 216.235 149.885C216.127 149.345 215.971 148.907 215.767 148.571C215.575 148.259 215.329 148.025 215.029 147.869C214.741 147.701 214.369 147.617 213.913 147.617C213.073 147.617 212.467 147.893 212.095 148.445C211.663 149.117 211.447 150.185 211.447 151.649ZM221.204 155.501V147.941L219.818 147.599V146.861H222.41L222.806 148.661H222.878C223.238 148.049 223.724 147.569 224.336 147.221C224.948 146.861 225.602 146.681 226.298 146.681C227.294 146.681 228.032 147.005 228.512 147.653C228.752 147.989 228.92 148.463 229.016 149.075C229.124 149.675 229.178 150.491 229.178 151.523V155.501L230.564 155.843V156.581H226.226V155.843L227.432 155.501V151.487C227.432 150.707 227.408 150.125 227.36 149.741C227.324 149.357 227.252 149.057 227.144 148.841C227 148.553 226.79 148.337 226.514 148.193C226.25 148.037 225.932 147.959 225.56 147.959C224.864 147.959 224.264 148.181 223.76 148.625C223.268 149.069 222.998 149.759 222.95 150.695V155.501L224.156 155.843V156.581H219.818V155.843L221.204 155.501ZM239.911 151.829H233.629C233.629 152.705 233.749 153.431 233.989 154.007C234.229 154.559 234.571 154.955 235.015 155.195C235.459 155.435 235.939 155.555 236.455 155.555C237.019 155.555 237.535 155.441 238.003 155.213C238.471 154.973 238.891 154.649 239.263 154.241L239.839 154.673C239.419 155.249 238.909 155.741 238.309 156.149C237.709 156.557 236.935 156.761 235.987 156.761C235.159 156.761 234.427 156.587 233.791 156.239C233.155 155.879 232.669 155.357 232.333 154.673C232.153 154.301 232.021 153.887 231.937 153.431C231.853 152.975 231.811 152.489 231.811 151.973C231.811 150.293 232.195 148.991 232.963 148.067C233.743 147.143 234.799 146.681 236.131 146.681C237.355 146.681 238.297 147.065 238.957 147.833C239.629 148.589 239.965 149.639 239.965 150.983C239.965 151.103 239.959 151.217 239.947 151.325C239.947 151.421 239.935 151.589 239.911 151.829ZM236.023 147.653C234.583 147.653 233.791 148.751 233.647 150.947H238.147V150.353C238.147 149.489 237.961 148.823 237.589 148.355C237.229 147.887 236.707 147.653 236.023 147.653Z" fill="#253133"/>
<defs>
<filter id="filter0_d_36_2" x="0" y="62.436" width="89.192" height="89.108" filterUnits="userSpaceOnUse" color-interpolation-filters="sRGB">
<feFlood flood-opacity="0" result="BackgroundImageFix"/>
<feColorMatrix in="SourceAlpha" type="matrix" values="0 0 0 0 0 0 0 0 0 0 0 0 0 0 0 0 0 0 127 0" result="hardAlpha"/>
<feOffset dy="2"/>
<feGaussianBlur stdDeviation="2"/>
<feColorMatrix type="matrix" values="0 0 0 0 0 0 0 0 0 0 0 0 0 0 0 0 0 0 0.5 0"/>
<feBlend mode="normal" in2="BackgroundImageFix" result="effect1_dropShadow_36_2"/>
<feBlend mode="normal" in="SourceGraphic" in2="effect1_dropShadow_36_2" result="shape"/>
</filter>
</defs>
</svg>
