<svg xmlns="http://www.w3.org/2000/svg" xmlns:xlink="http://www.w3.org/1999/xlink" width="1177" height="1177" viewBox="0 0 1177 1177"><defs><filter id="c" width="129.5%" height="129.6%" x="-14.7%" y="-14.8%" filterUnits="objectBoundingBox"><feOffset dy="2" in="SourceAlpha" result="shadowOffsetOuter1"/><feGaussianBlur in="shadowOffsetOuter1" result="shadowBlurOuter1" stdDeviation="2"/><feColorMatrix in="shadowBlurOuter1" result="shadowMatrixOuter1" values="0 0 0 0 0 0 0 0 0 0 0 0 0 0 0 0 0 0 0.5 0"/><feMerge><feMergeNode in="shadowMatrixOuter1"/><feMergeNode in="SourceGraphic"/></feMerge></filter><filter id="d" width="129.6%" height="129.6%" x="-14.8%" y="-14.8%" filterUnits="objectBoundingBox"><feOffset dy="2" in="SourceAlpha" result="shadowOffsetOuter1"/><feGaussianBlur in="shadowOffsetOuter1" result="shadowBlurOuter1" stdDeviation="2"/><feColorMatrix in="shadowBlurOuter1" result="shadowMatrixOuter1" values="0 0 0 0 0 0 0 0 0 0 0 0 0 0 0 0 0 0 0.5 0"/><feMerge><feMergeNode in="shadowMatrixOuter1"/><feMergeNode in="SourceGraphic"/></feMerge></filter><filter id="e" width="129.5%" height="129.6%" x="-14.8%" y="-14.8%" filterUnits="objectBoundingBox"><feOffset dy="2" in="SourceAlpha" result="shadowOffsetOuter1"/><feGaussianBlur in="shadowOffsetOuter1" result="shadowBlurOuter1" stdDeviation="2"/><feColorMatrix in="shadowBlurOuter1" result="shadowMatrixOuter1" values="0 0 0 0 0 0 0 0 0 0 0 0 0 0 0 0 0 0 0.5 0"/><feMerge><feMergeNode in="shadowMatrixOuter1"/><feMergeNode in="SourceGraphic"/></feMerge></filter><filter id="f" width="129.5%" height="129.6%" x="-14.8%" y="-14.8%" filterUnits="objectBoundingBox"><feOffset dy="2" in="SourceAlpha" result="shadowOffsetOuter1"/><feGaussianBlur in="shadowOffsetOuter1" result="shadowBlurOuter1" stdDeviation="2"/><feColorMatrix in="shadowBlurOuter1" result="shadowMatrixOuter1" values="0 0 0 0 0 0 0 0 0 0 0 0 0 0 0 0 0 0 0.5 0"/><feMerge><feMergeNode in="shadowMatrixOuter1"/><feMergeNode in="SourceGraphic"/></feMerge></filter><filter id="g" width="129.5%" height="129.6%" x="-14.7%" y="-14.8%" filterUnits="objectBoundingBox"><feOffset dy="2" in="SourceAlpha" result="shadowOffsetOuter1"/><feGaussianBlur in="shadowOffsetOuter1" result="shadowBlurOuter1" stdDeviation="2"/><feColorMatrix in="shadowBlurOuter1" result="shadowMatrixOuter1" values="0 0 0 0 0 0 0 0 0 0 0 0 0 0 0 0 0 0 0.5 0"/><feMerge><feMergeNode in="shadowMatrixOuter1"/><feMergeNode in="SourceGraphic"/></feMerge></filter><rect id="a" width="1177" height="1177" x="0" y="0"/></defs><g fill="none" fill-rule="evenodd"><mask id="b" fill="#fff"><use xlink:href="#a"/></mask><use xlink:href="#a" fill="#3A1B3E"/><polygon fill="#A35FA6" points="156.475 -58.077 224.858 -18.847 224.858 59.614 156.475 98.844 88.091 59.614 88.091 -18.847" mask="url(#b)" opacity=".085" transform="rotate(90 156.475 20.384)"/><polygon fill="#A35FA6" points="1039.475 1094.923 1107.858 1134.153 1107.858 1212.614 1039.475 1251.844 971.091 1212.614 971.091 1134.153" mask="url(#b)" opacity=".085" transform="rotate(90 1039.475 1173.384)"/><polygon fill="#A35FA6" points="23.46 20.426 91.844 59.657 91.844 138.117 23.46 177.347 -44.923 138.117 -44.923 59.657" mask="url(#b)" opacity=".085" transform="rotate(90 23.46 98.887)"/><polygon fill="#A35FA6" points="205.079 82.427 346.274 163.427 346.274 325.427 205.079 406.427 63.885 325.427 63.885 163.427" mask="url(#b)" opacity=".1" transform="rotate(90 205.08 244.427)"/><polygon fill="#A35FA6" points="837.079 909.427 978.274 990.427 978.274 1152.427 837.079 1233.427 695.885 1152.427 695.885 990.427" mask="url(#b)" opacity=".1" transform="rotate(90 837.08 1071.427)"/><g transform="translate(63 291)"><path fill="#768AB3" d="M596.978622,123.110973 C734.505624,152.012504 843.746857,257.646796 877.739041,393.099045 L585.743733,483.120156 C563.995822,459.94633 553.121866,446.911052 553.121866,444.014324 C553.121866,441.17553 567.510477,335.865745 596.2877,128.084968 Z"/><path fill="#D1D9E5" d="M214.215384,123.110973 C351.742386,152.012504 460.983619,257.646796 494.975804,393.099045 L202.980495,483.120156 C181.232584,459.94633 170.358628,446.911052 170.358628,444.014324 C170.358628,441.17553 184.74724,335.865745 213.524462,128.084968 Z" transform="matrix(-1 0 0 1 665.334 0)"/><g transform="translate(46.396 304.156)"><path fill="#394564" d="M39.9700241,0 L430.707489,165.837696 L463.329356,233.186629 L9.52294885,233.186629 C1.30707141,199.874254 -1.59265004,161.009816 0.823784502,116.593315 C3.24021904,72.1768139 16.2889656,33.3123756 39.9700241,0 Z" transform="matrix(-1 0 0 1 954.832 0)"/><path fill="#E5EDED" d="M39.9700241,0 L410.310585,169.458606 L463.329356,233.186629 L9.52294885,233.186629 C1.30707141,199.874254 -1.59265004,161.009816 0.823784502,116.593315 C3.24021904,72.1768139 16.2889656,33.3123756 39.9700241,0 Z"/></g><g transform="translate(400.162)"><path fill="#A3B0CC" d="M70.3182451,490.995449 L1.44986072,67.3489333 C38.1796657,55.279232 78.775766,49.2443814 123.238162,49.2443814 C123.735276,49.2443814 124.232028,49.2450754 124.728418,49.2464635 L126.137883,49.2443814 L126.137883,49.2443814 C170.600279,49.2443814 211.196379,54.796444 247.926184,65.9005692 L179.057799,490.995449 L70.3182451,490.995449 Z"/><path fill="#507079" d="M124.325557,422.198152 C192.988666,422.198152 248.651114,477.803144 248.651114,546.395378 C248.651114,548.949078 248.573961,551.484777 248.421857,554.000275 L0.229257128,554.000275 C0.0771528847,551.484777 0,548.949078 0,546.395378 C0,477.803144 55.6624479,422.198152 124.325557,422.198152 Z"/><text fill="#FFF" font-family="Domine-Regular, Domine" font-size="20" letter-spacing=".649">
                            <tspan x="86.37" y="490.704">Growth</tspan>
                            <tspan x="83.846" y="513.704">through </tspan>
                            <tspan x="69.472" y="536.704">innovation</tspan>
                        </text><text fill="#253133" font-family="Domine-Regular, Domine" font-size="18" letter-spacing=".584">
                            <tspan x="53.627" y="115.542">Quantify which </tspan>
                            <tspan x="62.464" y="135.542">outcomes are </tspan>
                            <tspan x="94.533" y="155.542">unmet</tspan>
                        </text><g transform="translate(78.292)"><g fill="#FFF" filter="url(#c)" transform="translate(1.367 1.448)"><ellipse cx="40.679" cy="40.554" rx="40.679" ry="40.554"/></g><text fill="#253133" font-family="Domine-Regular, Domine" font-size="40" letter-spacing="1.298">
                                <tspan x="33.5" y="55.003">3</tspan>
                            </text></g></g><g transform="translate(0 366.436)"><g fill="#FFF" filter="url(#d)" transform="translate(1.45 1.448)"><ellipse cx="40.596" cy="40.554" rx="40.596" ry="40.554"/></g><text fill="#253133" font-family="Domine-Regular, Domine" font-size="40" letter-spacing="1.298">
                                <tspan x="35.522" y="55.003">1</tspan>
                            </text><g transform="translate(956.908)"><g fill="#FFF" filter="url(#e)" transform="translate(1.379 1.448)"><ellipse cx="40.667" cy="40.554" rx="40.667" ry="40.554"/></g><text fill="#253133" font-family="Domine-Regular, Domine" font-size="40" letter-spacing="1.298">
                                <tspan x="33.775" y="55.003">5</tspan>
                            </text></g></g><g transform="translate(230.528 171.631)"><g transform="translate(495.49)"><g fill="#FFF" filter="url(#f)" transform="translate(1.379 1.448)"><ellipse cx="40.667" cy="40.554" rx="40.667" ry="40.554"/></g><text fill="#253133" font-family="Domine-Regular, Domine" font-size="40" letter-spacing="1.298">
                                <tspan x="33.775" y="55.003">4</tspan>
                            </text></g><g fill="#FFF" filter="url(#g)" transform="translate(1.367 1.448)"><ellipse cx="40.679" cy="40.554" rx="40.679" ry="40.554"/></g><text fill="#253133" font-family="Domine-Regular, Domine" font-size="40" letter-spacing="1.298">
                                <tspan x="33.5" y="55.003">2</tspan>
                            </text></g><text fill="#253133" font-family="Domine-Regular, Domine" font-size="18" letter-spacing=".584">
                    <tspan x="105.456" y="422.029">Define your </tspan>
                    <tspan x="105.456" y="442.029">market around the </tspan>
                    <tspan x="105.456" y="462.029">Job-to-be-done</tspan>
                </text><text fill="#FFF" font-family="Domine-Regular, Domine" font-size="18" letter-spacing=".584">
                    <tspan x="787.274" y="414.629">Formulate and </tspan>
                    <tspan x="787.274" y="434.629">deploy a winning </tspan>
                    <tspan x="787.274" y="454.629">strategy</tspan>
                </text><text fill="#FFF" font-family="Domine-Regular, Domine" font-size="18" letter-spacing=".584">
                    <tspan x="644.463" y="274.137">Discover hidden </tspan>
                    <tspan x="644.463" y="294.137">segments of </tspan>
                    <tspan x="644.463" y="314.137">opportunity</tspan>
                </text><text fill="#253133" font-family="Domine-Regular, Domine" font-size="18" letter-spacing=".584">
                    <tspan x="255.547" y="278.762">Uncover desired </tspan>
                    <tspan x="255.547" y="298.762">outcomes </tspan>
                    <tspan x="255.547" y="318.762">(customer needs)</tspan>
                </text></g></g></svg>